# xmcd CD database file
#
# Track frame offsets:
#	150
#	48162
#	102487
#	136297
#
# Disc length: 2835 seconds
#
# Revision: 0
# Processed by: cddbd v1.4PL0 Copyright (c) Steve Scherf et al.
# Submitted via: CDex 1.50
#
DISCID=2f0b1104
DTITLE=Stanley Cowell/Billy Harper/Reggie Workman/Billy Hart - Such Great Friends
DYEAR=1983
DGENRE=Jazz
TTITLE0=Sweet Song
TTITLE1=Destiny Is Yours
TTITLE2=Layla Joy
TTITLE3=East Harlem Nostalgia
EXTD=YEAR: 1983
EXTT0=
EXTT1=
EXTT2=
EXTT3=
PLAYORDER=
